
<svg width="0" height="0" class="hidden">
<!-- [ ICONS ] -->

    <!-- icon: arrow sort up -->
    <symbol xmlns="http://www.w3.org/2000/svg" viewBox="0 0 46 60" id="arrow-sort-up">
        <path d="M44.9454 13.4819L31.8238 0.544262C31.0944 -0.177675 29.8737 -0.185157 29.1444 0.544262L16.0211 13.4819C15.2805 14.2151 15.2823 15.402 16.0211 16.1333C16.7599 16.8664 17.9598 16.8664 18.6986 16.1333L28.5894 6.38304V35.6204C28.5894 36.6555 29.437 37.4954 30.4832 37.4954C31.5295 37.4954 32.3771 36.6553 32.3771 35.6204V6.38304L42.2679 16.1333C43.0085 16.8664 44.2066 16.8664 44.9454 16.1333C45.6859 15.4001 45.6859 14.2132 44.9454 13.4819Z"></path>
        <path d="M27.3012 43.8686L17.4104 53.6188V24.3815C17.4104 23.3464 16.5629 22.5065 15.5166 22.5065C14.4703 22.5065 13.6228 23.3465 13.6228 24.3815V53.6188L3.73196 43.8686C2.99132 43.1355 1.79324 43.1355 1.05447 43.8686C0.313825 44.6018 0.313825 45.7887 1.05447 46.5199L14.1778 59.4558C14.9072 60.1777 16.1279 60.1852 16.8571 59.4558L29.9804 46.5181C30.7211 45.7849 30.7192 44.598 29.9804 43.8668C29.2401 43.1373 28.04 43.1355 27.3012 43.8686Z" fill-opacity="0.5"></path>
    </symbol>

    <!-- icon: arrow go back -->
    <symbol xmlns="http://www.w3.org/2000/svg" viewBox="0 0 16 16" id="arrow-go-back">
        <path d="m3.86 8.753 5.482 4.796c.646.566 1.658.106 1.658-.753V3.204a1 1 0 0 0-1.659-.753l-5.48 4.796a1 1 0 0 0 0 1.506z"></path>
    </symbol>

    <!-- icon: search -->
    <symbol xmlns="http://www.w3.org/2000/svg" viewBox="0 0 8.15 8.26" id="search" >
        <g>
            <path d="M-4180.8,10.91a3.34,3.34,0,0,1-3.33-3.33,3.34,3.34,0,0,1,3.33-3.33,3.34,3.34,0,0,1,3.33,3.33A3.33,3.33,0,0,1-4180.8,10.91Zm0-6a2.65,2.65,0,0,0-2.65,2.65,2.65,2.65,0,0,0,2.65,2.65,2.65,2.65,0,0,0,2.65-2.65A2.65,2.65,0,0,0-4180.8,4.93Z" transform="translate(4184.13 -4.25)"></path>
            <path d="M-4176.38,12.52a.36.36,0,0,1-.28-.12l-2.28-2.19a.4.4,0,0,1,0-.57.41.41,0,0,1,.57,0l2.28,2.19a.41.41,0,0,1,0,.57A.43.43,0,0,1-4176.38,12.52Z" transform="translate(4184.13 -4.25)"></path>
        </g>
    </symbol>
    
</svg>